<svg width="40" height="40" viewBox="0 0 40 40" fill="none" xmlns="http://www.w3.org/2000/svg">
<circle opacity="0.3" cx="20" cy="20" r="20" fill="#009AA3"/>
<g clip-path="url(#clip0)">
<path d="M13.4453 13.9552H14.1844V13.4961C14.1844 13.0107 14.5779 12.6172 15.0633 12.6172H18.688C19.338 12.6172 19.9349 12.2585 20.24 11.6847L20.6681 10.8798C20.8207 10.5929 21.1192 10.4136 21.4441 10.4136H23.5461C24.517 10.4136 25.3039 11.2006 25.3039 12.1714V13.9552H26.043C26.5043 13.9552 26.9239 14.1332 27.2374 14.4239C27.3179 13.9802 27.3613 13.5236 27.3613 13.0567C27.3613 8.84985 23.951 5.43951 19.7441 5.43951C15.5373 5.43951 12.127 8.84985 12.127 13.0567C12.127 13.5236 12.1704 13.9802 12.2509 14.4239C12.5644 14.1331 12.984 13.9552 13.4453 13.9552Z" fill="#BB5D4C"/>
<path d="M13.4453 13.9552H14.1844V13.4961C14.1844 13.2231 14.3089 12.9792 14.5042 12.818C14.6179 9.12225 17.3639 6.08949 20.9307 5.53162C20.544 5.47115 20.1478 5.43945 19.7441 5.43945C15.5373 5.43945 12.127 8.84979 12.127 13.0566C12.127 13.5235 12.1704 13.9801 12.2509 14.4238C12.5644 14.1331 12.984 13.9552 13.4453 13.9552Z" fill="#A44F3E"/>
<path d="M24.1087 19.8242C23.8683 20.1028 23.5979 20.3545 23.3014 20.5733L24.583 22.8706H26.5314C26.4686 21.6027 26.083 20.4996 25.5209 19.8242H24.1087Z" fill="#BB5D4C"/>
<path d="M26.1026 18.1235C26.0828 18.1242 26.0629 18.125 26.043 18.125H25.0656C24.8614 18.7571 24.5328 19.3328 24.1087 19.8242H25.5368C26.0569 19.8242 26.4824 19.3986 26.4824 18.8786C26.4824 18.5705 26.3324 18.2964 26.1026 18.1235Z" fill="#FD8087"/>
<path d="M27.3986 32.2841C26.3689 31.8249 25.6508 30.7929 25.6508 29.5926V27.6932C25.6508 26.2941 26.7851 25.1598 28.1842 25.1598H30.1028C29.8106 23.85 28.6421 22.8705 27.2442 22.8705H12.2442C10.6262 22.8705 9.31453 24.1822 9.31453 25.8002V33.9746C9.31453 34.2982 9.57685 34.5606 9.90047 34.5606H26.2481V34.1489C26.2481 33.3369 26.7178 32.6297 27.3986 32.2841Z" fill="#EAF6FF"/>
<path d="M11.6875 33.9746V25.8002C11.6875 24.1822 12.9992 22.8706 14.6172 22.8706H12.2441C10.6261 22.8706 9.31445 24.1822 9.31445 25.8002V33.9746C9.31445 34.2982 9.57678 34.5605 9.90039 34.5605H12.2734C11.9498 34.5605 11.6875 34.2982 11.6875 33.9746Z" fill="#D8ECFE"/>
<path d="M31.367 32.2841C31.0008 32.4475 30.5954 32.5391 30.1684 32.5391H28.5972C28.1703 32.5391 27.7649 32.4475 27.3986 32.2841C26.7177 32.6296 26.248 33.3369 26.248 34.1489V34.5605H32.2246C32.3864 34.5605 32.5176 34.4294 32.5176 34.2676V34.1489C32.5176 33.3369 32.0479 32.6296 31.367 32.2841Z" fill="#FFBD86"/>
<path d="M28.5972 32.5391C28.1703 32.5391 27.7649 32.4475 27.3986 32.2841C26.7177 32.6296 26.248 33.3369 26.248 34.1489V34.5605H28.0352V34.1489C28.0352 33.503 28.3321 32.9232 28.7962 32.5391H28.5972Z" fill="#F6A96C"/>
<path d="M16.7657 26.0222V20.9403C16.564 20.831 16.3703 20.7088 16.1869 20.5733L13.9358 24.6083C13.8711 24.7241 13.8924 24.8689 13.9876 24.9613L15.901 26.8179L16.7657 26.0222Z" fill="white"/>
<path d="M25.5525 24.6083L23.3014 20.5733C23.118 20.7087 22.9243 20.831 22.7225 20.9403V26.0222L23.5873 26.8179L25.5007 24.9613C25.5959 24.8689 25.6172 24.7241 25.5525 24.6083Z" fill="white"/>
<path d="M16.7657 26.0222L14.1766 28.4048C14.0833 28.4906 14.0558 28.6268 14.1085 28.7421L16.7657 34.5605V26.0222Z" fill="white"/>
<path d="M24.0801 29.0997C24.0801 28.5893 24.3852 28.1509 24.8227 27.9548L22.664 25.9682V34.5606H22.7226L24.7178 30.1917C24.3373 29.9761 24.0801 29.5683 24.0801 29.0997Z" fill="white"/>
<path d="M20.2482 25.2426L19.7441 26.5625L19.2401 25.2426L16.7657 27.55V34.5605H22.7226V27.55L20.2482 25.2426Z" fill="#FE99A0"/>
<path d="M16.7657 27.55V34.5605H17.9767V26.4208L16.7657 27.55Z" fill="#FD8087"/>
<path d="M20.382 21.533H19.1063C18.259 21.533 17.4619 21.3188 16.7657 20.9418V27.55L19.7441 24.7726L22.7226 27.55V20.9418C22.0264 21.3188 21.2293 21.533 20.382 21.533Z" fill="#FDB4BA"/>
<path d="M20.382 21.533H19.1063C18.6359 21.533 18.1815 21.4657 17.7506 21.3424L19.7442 26.5625L21.7377 21.3424C21.3069 21.4657 20.8525 21.533 20.382 21.533Z" fill="#EA9B58"/>
<path d="M19.1063 21.533C18.6359 21.533 18.1815 21.4657 17.7506 21.3424L19.7442 26.5625L20.4326 24.7597L19.2004 21.533H19.1063Z" fill="#D88A55"/>
<path d="M14.1844 16.6112V13.9552H13.4453C12.4745 13.9552 11.6875 14.7421 11.6875 15.713V16.3672C11.6875 17.338 12.4745 18.125 13.4453 18.125H14.4227C14.2686 17.6479 14.1844 17.1395 14.1844 16.6112Z" fill="#EA9B58"/>
<path d="M26.043 13.9552H25.3039V16.6112C25.3039 17.1395 25.2197 17.648 25.0656 18.125H26.043C27.0138 18.125 27.8008 17.338 27.8008 16.3672V15.713C27.8008 14.7422 27.0138 13.9552 26.043 13.9552Z" fill="#EA9B58"/>
<path d="M20.668 10.8798L20.24 11.6847C19.9349 12.2585 19.338 12.6172 18.688 12.6172H15.0633C14.5779 12.6172 14.1844 13.0107 14.1844 13.4961V16.6112C14.1844 19.3295 16.388 21.5331 19.1063 21.5331H20.382C23.1003 21.5331 25.3039 19.3295 25.3039 16.6112V12.1714C25.3039 11.2006 24.5169 10.4136 23.5461 10.4136H21.4441C21.1191 10.4136 20.8207 10.5929 20.668 10.8798Z" fill="#F6A96C"/>
<path d="M16.0234 16.6112V13.4961C16.0234 13.0107 16.4169 12.6172 16.9023 12.6172H15.0633C14.5779 12.6172 14.1844 13.0107 14.1844 13.4961V16.6112C14.1844 19.3295 16.388 21.533 19.1063 21.533H20.382C20.4766 21.533 20.5704 21.5298 20.6636 21.5245C18.0765 21.3784 16.0234 19.2349 16.0234 16.6112Z" fill="#EA9B58"/>
<path d="M18.309 18.125C18.1236 18.125 17.9846 18.2952 18.0215 18.4769C18.1845 19.2791 18.8938 19.8828 19.7441 19.8828C20.5944 19.8828 21.3037 19.2791 21.4667 18.4769C21.5036 18.2952 21.3647 18.125 21.1793 18.125H18.309Z" fill="#FD8087"/>
<path d="M19.252 18.4769C19.215 18.2952 19.354 18.125 19.5394 18.125H18.309C18.1236 18.125 17.9847 18.2952 18.0215 18.4769C18.1846 19.2791 18.8938 19.8828 19.7441 19.8828C19.9606 19.8828 20.1678 19.8435 20.3594 19.772C19.7986 19.5624 19.3735 19.0748 19.252 18.4769Z" fill="#FE646F"/>
<path d="M25.6508 29.5926V27.8447H25.3352C24.642 27.8447 24.0801 28.4066 24.0801 29.0997C24.0801 29.7929 24.642 30.3548 25.3352 30.3548H25.7509C25.686 30.1116 25.6508 29.8563 25.6508 29.5926Z" fill="#FFBD86"/>
<path d="M33.4305 27.8447H33.1148V29.5926C33.1148 29.8563 33.0797 30.1116 33.0147 30.3548H33.4305C34.1236 30.3548 34.6855 29.7929 34.6855 29.0997C34.6855 28.4066 34.1236 27.8447 33.4305 27.8447Z" fill="#FFBD86"/>
<path d="M30.1684 32.5391H28.5972C26.97 32.5391 25.6508 31.2199 25.6508 29.5926V27.6932C25.6508 26.2941 26.7851 25.1598 28.1842 25.1598H30.5815C31.9806 25.1598 33.1149 26.2941 33.1149 27.6932V29.5926C33.1148 31.2199 31.7956 32.5391 30.1684 32.5391Z" fill="#FED2A4"/>
<path d="M27.0977 29.5926V27.6932C27.0977 27.4773 27.1248 27.2678 27.1756 27.0677C26.8739 27.1478 26.5571 27.1909 26.2302 27.1909H25.7008C25.6681 27.3533 25.6508 27.5212 25.6508 27.6932V29.5926C25.6508 31.2199 26.97 32.5391 28.5972 32.5391H30.0441C28.4168 32.5391 27.0977 31.2199 27.0977 29.5926Z" fill="#FFBD86"/>
<path d="M29.5199 25.1608H28.1842C26.957 25.1608 25.9339 26.0333 25.7008 27.1919H26.2301C27.6696 27.1918 28.9149 26.3649 29.5199 25.1608Z" fill="#BB5D4C"/>
<path d="M30.5531 27.1909H32.516C32.6996 27.1909 32.8798 27.1768 33.056 27.1507C32.8075 26.0123 31.7943 25.1598 30.5815 25.1598H28.1842C27.8882 25.1598 27.6043 25.2111 27.3402 25.3044C27.9699 26.4296 29.1721 27.1909 30.5531 27.1909Z" fill="#BB5D4C"/>
<path d="M17.1074 15.9495C17.3502 15.9495 17.5469 15.7527 17.5469 15.51V14.2525C17.5469 14.0098 17.3502 13.813 17.1074 13.813C16.8647 13.813 16.668 14.0098 16.668 14.2525V15.51C16.668 15.7527 16.8647 15.9495 17.1074 15.9495Z" fill="black"/>
<path d="M22.3809 15.9495C22.6236 15.9495 22.8203 15.7527 22.8203 15.51V14.2525C22.8203 14.0098 22.6236 13.813 22.3809 13.813C22.1381 13.813 21.9414 14.0098 21.9414 14.2525V15.51C21.9414 15.7527 22.1381 15.9495 22.3809 15.9495Z" fill="black"/>
<path d="M18.8481 16.5677L19.5805 17.079C19.6571 17.1325 19.7448 17.1582 19.8316 17.1582C19.9704 17.1582 20.1069 17.0926 20.1923 16.9703C20.3313 16.7713 20.2826 16.4973 20.0836 16.3584L19.638 16.0473L20.1518 14.7737C20.2426 14.5486 20.1336 14.2926 19.9086 14.2017C19.6833 14.1109 19.4275 14.2198 19.3366 14.4449L18.6921 16.0429C18.6155 16.2329 18.6802 16.4505 18.8481 16.5677Z" fill="black"/>
<path d="M19.7441 20.3223C20.7849 20.3223 21.6904 19.5829 21.8973 18.5645C21.9413 18.3481 21.8864 18.1258 21.7467 17.9547C21.6069 17.7837 21.4001 17.6855 21.1793 17.6855H18.309C18.0882 17.6855 17.8814 17.7836 17.7416 17.9547C17.6018 18.1258 17.5469 18.3481 17.5909 18.5643C17.7978 19.5829 18.7034 20.3223 19.7441 20.3223ZM20.9876 18.5645C20.8043 19.083 20.3072 19.4434 19.7441 19.4434C19.181 19.4434 18.684 19.0831 18.5007 18.5645H20.9876Z" fill="black"/>
<path d="M28.3867 29.1332V28.5322C28.3867 28.2895 28.19 28.0927 27.9473 28.0927C27.7045 28.0927 27.5078 28.2895 27.5078 28.5322V29.1332C27.5078 29.3759 27.7045 29.5727 27.9473 29.5727C28.19 29.5727 28.3867 29.3759 28.3867 29.1332Z" fill="black"/>
<path d="M30.8184 28.0927C30.5756 28.0927 30.3789 28.2894 30.3789 28.5321V29.1332C30.3789 29.3759 30.5756 29.5726 30.8184 29.5726C31.0611 29.5726 31.2578 29.3759 31.2578 29.1332V28.5321C31.2578 28.2894 31.0611 28.0927 30.8184 28.0927Z" fill="black"/>
<path d="M29.8178 30.1545C29.5779 30.3944 29.1877 30.3944 28.9478 30.1545C28.7761 29.9829 28.4979 29.9829 28.3263 30.1545C28.1547 30.3261 28.1547 30.6044 28.3263 30.7759C28.6176 31.0672 29.0002 31.2129 29.3828 31.2129C29.7654 31.2129 30.148 31.0672 30.4393 30.7759C30.6109 30.6043 30.6109 30.326 30.4393 30.1545C30.2677 29.9829 29.9895 29.9829 29.8178 30.1545Z" fill="black"/>
<path d="M33.5404 27.4092C33.3968 25.9027 32.1248 24.7204 30.5814 24.7204H30.4347C29.9837 23.3908 28.7243 22.4311 27.2441 22.4311H26.9381C26.8438 21.5204 26.5914 20.7105 26.2275 20.0784C26.6421 19.8388 26.9219 19.3909 26.9219 18.8786C26.9219 18.7155 26.8932 18.5591 26.8412 18.4137C27.6592 18.0936 28.2402 17.2972 28.2402 16.3672V15.713C28.2402 15.1658 28.0387 14.665 27.7066 14.28C27.7685 13.877 27.8008 13.4686 27.8008 13.0566C27.8008 11.2238 27.1682 9.42963 26.0197 8.00457C25.8674 7.81561 25.5908 7.78584 25.4017 7.93818C25.2128 8.09047 25.1831 8.36715 25.3353 8.55611C26.3733 9.84395 26.9219 11.4001 26.9219 13.0566C26.9219 13.2679 26.9114 13.478 26.8929 13.6869C26.6313 13.5768 26.3441 13.5158 26.043 13.5158H25.7433V12.1714C25.7433 10.9598 24.7577 9.97414 23.5461 9.97414H21.4441C20.9556 9.97414 20.5096 10.2421 20.2801 10.6735L19.852 11.4784C19.6226 11.9098 19.1766 12.1778 18.688 12.1778H15.0634C14.3365 12.1778 13.745 12.7692 13.745 13.4962V13.5158H13.4453C13.1441 13.5158 12.8569 13.5768 12.5954 13.6869C12.5769 13.478 12.5664 13.2679 12.5664 13.0566C12.5664 9.09881 15.7863 5.87891 19.7441 5.87891C21.2581 5.87891 22.706 6.3449 23.9312 7.2265C24.1282 7.36818 24.4028 7.32354 24.5446 7.12643C24.6863 6.92943 24.6416 6.6548 24.4446 6.51307C23.0689 5.52324 21.4435 5 19.7441 5C15.3017 5 11.6875 8.61418 11.6875 13.0566C11.6875 13.4686 11.7198 13.8771 11.7817 14.28C11.4496 14.6651 11.248 15.1658 11.248 15.713V16.3672C11.248 17.5788 12.2337 18.5645 13.4453 18.5645H14.1134C14.4373 19.3895 14.9601 20.1153 15.6225 20.6829L14.6471 22.4311H12.2441C10.3864 22.4311 8.875 23.9425 8.875 25.8003V33.9746C8.875 34.54 9.33502 35 9.90039 35H12.625C12.8678 35 13.0645 34.8032 13.0645 34.5605C13.0645 34.3179 12.8678 34.1211 12.625 34.1211H9.90039C9.81959 34.1211 9.75391 34.0554 9.75391 33.9746V25.8003C9.75391 24.4271 10.871 23.31 12.2441 23.31H14.1568L13.552 24.3941C13.3906 24.6832 13.4439 25.0461 13.6816 25.2767L15.2612 26.8094L13.879 28.0814C13.6451 28.2967 13.5767 28.6355 13.7088 28.9246L16.0819 34.1211H14.6758C14.433 34.1211 14.2363 34.3179 14.2363 34.5605C14.2363 34.8032 14.433 35 14.6758 35H32.2246C32.6285 35 32.957 34.6715 32.957 34.2676V34.1489C32.957 33.43 32.6553 32.7807 32.1721 32.3199C32.6925 31.9364 33.0995 31.4079 33.3332 30.7943H33.4305C34.3648 30.7943 35.125 30.0341 35.125 29.0998C35.125 28.2024 34.4237 27.4661 33.5404 27.4092ZM30.5814 25.5993C31.3974 25.5993 32.1054 26.0688 32.4507 26.7515H30.553C29.5914 26.7515 28.6887 26.3225 28.0788 25.602C28.1137 25.6003 28.1488 25.5993 28.1842 25.5993H30.5814ZM27.2441 23.31C28.2304 23.31 29.084 23.8868 29.4869 24.7204H28.1842C26.6408 24.7204 25.3687 25.9027 25.2252 27.4092C25.1238 27.4157 25.0248 27.4316 24.9289 27.4553L24.227 26.8094L25.8067 25.2767C26.0444 25.046 26.0976 24.6831 25.9363 24.3942L25.3315 23.31H27.2441V23.31ZM27.6462 26.4274C27.2386 26.6253 26.7869 26.7382 26.3155 26.7504C26.5053 26.3758 26.8041 26.0656 27.1703 25.862C27.1708 25.8622 27.1714 25.8623 27.172 25.8625C27.3138 26.0662 27.4729 26.2548 27.6462 26.4274ZM25.2265 29.9073C24.828 29.8538 24.5195 29.5125 24.5195 29.0997C24.5195 28.6922 24.8203 28.3545 25.2113 28.2945V29.5926C25.2113 29.6987 25.2169 29.8036 25.2265 29.9073ZM22.2831 21.6239V26.5394L20.7643 25.123L22.0717 21.6994C22.1429 21.6757 22.2133 21.6505 22.2831 21.6239ZM25.933 18.5645C26.0017 18.6509 26.043 18.7599 26.043 18.8786C26.043 19.1577 25.8159 19.3848 25.5367 19.3848H24.9686C25.1263 19.1249 25.2625 18.8506 25.3749 18.5645H25.933ZM24.3027 20.2637H25.3078C25.667 20.7649 25.9497 21.5114 26.0557 22.4311H24.8412L23.8659 20.6829C24.0192 20.5514 24.165 20.4114 24.3027 20.2637ZM23.162 21.2254L25.114 24.7242L23.5792 26.2133L23.162 25.8294V21.2254H23.162ZM26.043 14.3946C26.7699 14.3946 27.3613 14.986 27.3613 15.713V16.3672C27.3613 17.0942 26.7699 17.6855 26.043 17.6855H25.6351C25.706 17.3383 25.7433 16.979 25.7433 16.6112V14.3946H26.043ZM13.4453 17.6855C12.7184 17.6855 12.127 17.0942 12.127 16.3672V15.713C12.127 14.986 12.7184 14.3946 13.4453 14.3946H13.745V16.6112C13.745 16.979 13.7822 17.3383 13.8532 17.6855H13.4453ZM14.6239 16.6112V13.4961C14.6239 13.2537 14.821 13.0566 15.0633 13.0566H18.688C19.5023 13.0566 20.2456 12.61 20.628 11.891L21.0561 11.0861C21.1325 10.9423 21.2812 10.853 21.4441 10.853H23.546C24.2729 10.853 24.8644 11.4444 24.8644 12.1713V16.6111C24.8644 19.0827 22.8536 21.0935 20.3819 21.0935H19.1063C16.6347 21.0936 14.6239 19.0828 14.6239 16.6112ZM17.4166 21.6995L18.724 25.123L17.2052 26.5394V21.624C17.2749 21.6505 17.3454 21.6757 17.4166 21.6995ZM16.3263 32.5404L14.5524 28.6562L16.3263 27.0238V32.5404ZM16.3263 25.8293L15.909 26.2133L14.3743 24.7242L16.3263 21.2253V25.8293ZM19.3047 34.1211H17.2052V27.7412L19.0625 26.0092L19.3047 26.6435V34.1211ZM18.4461 21.9318C18.6625 21.9586 18.8828 21.9725 19.1063 21.9725H20.3819C20.6054 21.9725 20.8257 21.9586 21.0421 21.9318L19.7441 25.3307L18.4461 21.9318ZM22.7226 30.1074C22.4798 30.1074 22.2831 30.3042 22.2831 30.5469V34.1211H20.1836V26.6435L20.4259 26.0092L22.2832 27.7412V28.4961C22.2832 28.7388 22.4799 28.9355 22.7226 28.9355C22.9654 28.9355 23.1621 28.7388 23.1621 28.4961V27.0238L24.128 27.9127C23.827 28.2186 23.6407 28.6377 23.6407 29.0998C23.6407 29.5838 23.8451 30.0208 24.1717 30.3299L23.1621 32.5405V30.5469C23.162 30.3042 22.9653 30.1074 22.7226 30.1074ZM25.8093 34.1211H23.4064L24.9464 30.7488C25.0714 30.7782 25.2013 30.7943 25.3351 30.7943H25.4324C25.6661 31.4079 26.073 31.9364 26.5935 32.3199C26.1166 32.7747 25.817 33.4133 25.8093 34.1211ZM26.6877 34.1211C26.6971 33.5575 26.9907 33.0621 27.4308 32.7713C27.7946 32.9053 28.1875 32.9785 28.5972 32.9785H30.1684C30.5781 32.9785 30.9711 32.9053 31.3349 32.7713C31.775 33.0621 32.0685 33.5575 32.0779 34.1211H26.6877ZM32.6754 29.5926C32.6754 30.975 31.5508 32.0996 30.1684 32.0996H28.5972C27.2148 32.0996 26.0903 30.975 26.0903 29.5926V27.6932C26.0903 27.6721 26.0913 27.6513 26.0918 27.6303H26.2302C27.0142 27.6303 27.7586 27.4115 28.3954 27.0178C29.0342 27.4111 29.7784 27.6303 30.553 27.6303H32.5159C32.5683 27.6303 32.6209 27.6291 32.6737 27.627C32.6744 27.6491 32.6754 27.671 32.6754 27.6932V29.5926ZM33.5392 29.9073C33.5488 29.8036 33.5543 29.6987 33.5543 29.5926V28.2945C33.9454 28.3545 34.2462 28.6922 34.2462 29.0997C34.2461 29.5125 33.9376 29.8538 33.5392 29.9073Z" fill="black"/>
</g>
<defs>
<clipPath id="clip0">
<rect width="30" height="30" fill="white" transform="translate(7 5)"/>
</clipPath>
</defs>
</svg>
