<svg width="40" height="40" viewBox="0 0 40 40" fill="none" xmlns="http://www.w3.org/2000/svg">
<circle opacity="0.3" cx="20" cy="20" r="20" fill="#009AA3"/>
<path d="M25.7344 31.6406V27.2812H28.6406V32.6094C28.6406 33.1232 28.4365 33.616 28.0731 33.9794C27.7098 34.3427 27.217 34.5469 26.7031 34.5469H25.7344V31.6406Z" fill="#F6BB92"/>
<path d="M27.1875 22.9219L27.5964 21.9531L27.9591 21.0939C28.1533 20.6319 28.2056 20.1225 28.1092 19.6306C28.0127 19.1388 27.772 18.6868 27.4176 18.3324C26.9446 17.8593 26.6789 17.2177 26.6789 16.5487V14.2031H16.0469V16.5489C16.0469 17.2179 15.7812 17.8595 15.3082 18.3326C14.9538 18.687 14.713 19.1389 14.6166 19.6307C14.5201 20.1225 14.5723 20.6319 14.7665 21.0939L15.1504 22.007L27.1875 22.9219Z" fill="#834B10"/>
<path d="M28.6406 24.8995C28.6406 24.2115 28.3966 23.5458 27.9519 23.0209C27.5072 22.496 26.8907 22.1458 26.2121 22.0327L25.7344 21.9531L23.2329 21.5362L21.375 23.4062L19.4976 21.5218L16.0469 21.9531V34.5469H25.7344V30.6719C26.1725 30.2335 26.4491 29.6596 26.5191 29.0438C26.5891 28.428 26.4482 27.8067 26.1196 27.2812H28.6406V24.8995Z" fill="#85BC94"/>
<path d="M26.7031 14.6875H16.0469V11.7812C16.0469 10.3681 16.6082 9.01291 17.6074 8.0137C18.6067 7.01448 19.9619 6.45313 21.375 6.45312C22.7881 6.45313 24.1433 7.01448 25.1426 8.0137C26.1418 9.01291 26.7031 10.3681 26.7031 11.7812V14.6875Z" fill="#834B10"/>
<path d="M25.25 13.2344H24.7656V10.3281H17.9844V13.2344H17.5C17.1146 13.2344 16.745 13.3875 16.4725 13.66C16.2 13.9325 16.0469 14.3021 16.0469 14.6875C16.0469 15.0729 16.2 15.4425 16.4725 15.715C16.745 15.9875 17.1146 16.1406 17.5 16.1406H17.9844V16.625C17.9844 17.5242 18.3416 18.3867 18.9775 19.0225C19.6133 19.6584 20.4758 20.0156 21.375 20.0156C22.2742 20.0156 23.1367 19.6584 23.7725 19.0225C24.4084 18.3867 24.7656 17.5242 24.7656 16.625V16.1406H25.25C25.6354 16.1406 26.005 15.9875 26.2775 15.715C26.55 15.4425 26.7031 15.0729 26.7031 14.6875C26.7031 14.3021 26.55 13.9325 26.2775 13.66C26.005 13.3875 25.6354 13.2344 25.25 13.2344Z" fill="#F6BB92"/>
<path d="M20.8906 25.256V34.5469H10.0527C10.414 33.9844 10.8346 33.4624 11.3073 32.9896L11.343 32.9539C12.2091 32.0893 12.9018 31.0671 13.384 29.9423C13.5741 29.4991 13.7637 29.0559 13.9017 28.7344C14.027 28.4419 14.1094 28.25 14.1094 28.25H12.7156C12.2836 28.2496 11.8641 28.1051 11.5237 27.8392C11.1832 27.5733 10.9413 27.2014 10.8362 26.7823L10.5977 25.8281L10.5353 25.5787C10.4996 25.4359 10.4969 25.2868 10.5274 25.1428C10.558 24.9988 10.6209 24.8636 10.7115 24.7476C10.8021 24.6316 10.9179 24.5377 11.0502 24.4732C11.1825 24.4086 11.3278 24.375 11.475 24.375H13.1406C13.4529 23.4372 14.0906 22.6421 14.9383 22.1336L15.1502 22.007C15.6949 21.6803 16.3133 21.4962 16.9481 21.4718C17.5828 21.4473 18.2135 21.5833 18.7818 21.8672L18.803 21.8781C19.4303 22.1917 19.9578 22.6739 20.3266 23.2705C20.6953 23.8671 20.8906 24.5546 20.8906 25.256Z" fill="#BD9070"/>
<path d="M20.8906 25.3438V26.7182C20.8906 27.0231 20.7947 27.3204 20.6163 27.5678C20.438 27.8152 20.1863 28.0003 19.897 28.0967C19.5987 28.1961 19.2763 28.1961 18.978 28.0967C18.6887 28.0003 18.437 27.8152 18.2587 27.5678C18.0803 27.3204 17.9844 27.0231 17.9844 26.7182V24.375H19.9219L20.8906 25.3438Z" fill="#9E785D"/>
<path d="M16.3895 27.6239L15.4208 28.5927C15.3299 28.6835 15.2066 28.7344 15.0781 28.7344H13.9017C14.027 28.4419 14.1094 28.25 14.1094 28.25H12.7156C12.2439 28.2504 11.7883 28.0781 11.435 27.7656H14.8777L15.7042 26.9385C15.795 26.8477 15.9183 26.7966 16.0469 26.7966C16.1754 26.7966 16.2987 26.8477 16.3895 26.9385C16.4804 27.0294 16.5315 27.1527 16.5315 27.2812C16.5315 27.4098 16.4804 27.5331 16.3895 27.6239Z" fill="#9E785D"/>
<path d="M12.1719 24.375V24.9604C12.1719 25.1906 12.0805 25.4113 11.9177 25.574C11.755 25.7367 11.5343 25.8281 11.3042 25.8281H10.5977L10.5353 25.5787C10.4996 25.4359 10.4969 25.2868 10.5275 25.1428C10.558 24.9988 10.6209 24.8636 10.7115 24.7476C10.8021 24.6316 10.9179 24.5377 11.0502 24.4732C11.1825 24.4086 11.3278 24.375 11.475 24.375H12.1719Z" fill="#9E785D"/>
<path d="M13.6744 33.3504C13.5844 33.3503 13.4963 33.3252 13.4198 33.2779C13.3434 33.2306 13.2816 33.1629 13.2414 33.0825C13.2012 33.002 13.1842 32.912 13.1923 32.8224C13.2004 32.7329 13.2333 32.6473 13.2872 32.5754C13.8649 31.8056 14.3145 30.9475 14.6186 30.0343C14.6383 29.9734 14.6698 29.917 14.7114 29.8683C14.753 29.8196 14.8038 29.7797 14.8609 29.7508C14.918 29.7219 14.9803 29.7046 15.0441 29.6999C15.108 29.6952 15.1721 29.7032 15.2328 29.7235C15.2936 29.7437 15.3497 29.7758 15.3979 29.8179C15.4462 29.8599 15.4856 29.9111 15.5139 29.9685C15.5423 30.0259 15.559 30.0883 15.563 30.1522C15.5671 30.2161 15.5585 30.2802 15.5376 30.3407C15.2006 31.3526 14.7024 32.3035 14.0622 33.1567C14.0171 33.2169 13.9585 33.2658 13.8912 33.2994C13.8239 33.3331 13.7496 33.3505 13.6744 33.3504Z" fill="#9E785D"/>
<path d="M17.5 13.2344C17.9554 13.0826 18.3722 12.8334 18.7214 12.5042C19.0707 12.1749 19.344 11.7735 19.5223 11.3278L19.9219 10.3281L17.5 9.84375V13.2344Z" fill="#834B10"/>
<path d="M19.9219 10.3281L19.9786 10.4132C20.5571 11.281 21.341 11.9926 22.2606 12.4847C23.1801 12.9769 24.207 13.2344 25.25 13.2344V9.84375L19.9219 10.3281Z" fill="#834B10"/>
<path d="M19.5586 14.8086C19.893 14.8086 20.1641 14.5375 20.1641 14.2031C20.1641 13.8687 19.893 13.5977 19.5586 13.5977C19.2242 13.5977 18.9531 13.8687 18.9531 14.2031C18.9531 14.5375 19.2242 14.8086 19.5586 14.8086Z" fill="#834B10"/>
<path d="M23.1914 14.8086C23.5258 14.8086 23.7969 14.5375 23.7969 14.2031C23.7969 13.8687 23.5258 13.5977 23.1914 13.5977C22.857 13.5977 22.5859 13.8687 22.5859 14.2031C22.5859 14.5375 22.857 14.8086 23.1914 14.8086Z" fill="#834B10"/>
<path d="M21.375 16.625H20.4063C20.3237 16.625 20.2425 16.6039 20.1704 16.5637C20.0983 16.5235 20.0376 16.4655 19.9942 16.3953C19.9508 16.325 19.9261 16.2448 19.9224 16.1624C19.9187 16.0799 19.9361 15.9978 19.9731 15.924L20.9418 13.9865C20.97 13.9291 21.0092 13.8778 21.0572 13.8357C21.1053 13.7935 21.1612 13.7613 21.2218 13.7408C21.2823 13.7204 21.3464 13.7121 21.4101 13.7165C21.4739 13.7209 21.5362 13.7379 21.5934 13.7665C21.6505 13.7951 21.7015 13.8347 21.7433 13.8831C21.7851 13.9315 21.8169 13.9877 21.8368 14.0484C21.8568 14.1091 21.8646 14.1732 21.8597 14.2369C21.8547 14.3007 21.8373 14.3628 21.8082 14.4198L21.19 15.6562H21.375C21.5035 15.6562 21.6267 15.7073 21.7175 15.7981C21.8084 15.8889 21.8594 16.0122 21.8594 16.1406C21.8594 16.2691 21.8084 16.3923 21.7175 16.4831C21.6267 16.574 21.5035 16.625 21.375 16.625Z" fill="#834B10"/>
<path d="M24.2812 25.8281C24.1528 25.8281 24.0296 25.7771 23.9387 25.6863C23.8479 25.5954 23.7969 25.4722 23.7969 25.3438V21.9531C23.7969 21.8247 23.8479 21.7015 23.9387 21.6106C24.0296 21.5198 24.1528 21.4688 24.2812 21.4688C24.4097 21.4688 24.5329 21.5198 24.6238 21.6106C24.7146 21.7015 24.7656 21.8247 24.7656 21.9531V25.3438C24.7656 25.4722 24.7146 25.5954 24.6238 25.6863C24.5329 25.7771 24.4097 25.8281 24.2812 25.8281Z" fill="#C3C3C3"/>
<path d="M24.2812 28.25C25.0838 28.25 25.7344 27.5994 25.7344 26.7969C25.7344 25.9943 25.0838 25.3438 24.2812 25.3438C23.4787 25.3438 22.8281 25.9943 22.8281 26.7969C22.8281 27.5994 23.4787 28.25 24.2812 28.25Z" fill="#E4E4E2"/>
<path d="M24.2812 27.2812C24.5488 27.2812 24.7656 27.0644 24.7656 26.7969C24.7656 26.5294 24.5488 26.3125 24.2812 26.3125C24.0137 26.3125 23.7969 26.5294 23.7969 26.7969C23.7969 27.0644 24.0137 27.2812 24.2812 27.2812Z" fill="#C3C3C3"/>
<path d="M26.2188 34.5469H18.9531C18.5677 34.5469 18.1981 34.3938 17.9256 34.1213C17.6531 33.8488 17.5 33.4791 17.5 33.0938C17.5 32.7084 17.6531 32.3388 17.9256 32.0662C18.1981 31.7937 18.5677 31.6406 18.9531 31.6406H19.4375C19.4375 31.3837 19.5396 31.1373 19.7212 30.9556C19.9029 30.7739 20.1493 30.6719 20.4062 30.6719H20.4894C20.7463 30.6719 20.9927 30.7739 21.1743 30.9556L21.8594 31.6406H26.2188V34.5469Z" fill="#F6BB92"/>
<path d="M10.1067 32.2982C10.0352 32.4567 9.99865 32.6289 9.99969 32.8028C10.0007 32.9767 10.0393 33.1484 10.1128 33.306C10.1862 33.4637 10.2929 33.6036 10.4254 33.7163C10.5579 33.829 10.7132 33.9117 10.8806 33.9588L12.7451 34.4856C13.1159 34.5904 13.5132 34.5436 13.8496 34.3555C14.1859 34.1674 14.4338 33.8533 14.5386 33.4825C14.6434 33.1116 14.5965 32.7143 14.4084 32.378C14.2203 32.0417 13.9063 31.7939 13.5355 31.6891L13.0692 31.5574C13.1039 31.4349 13.114 31.3069 13.0991 31.1806C13.0842 31.0542 13.0446 30.932 12.9825 30.821C12.9204 30.71 12.8371 30.6122 12.7372 30.5334C12.6373 30.4546 12.5229 30.3962 12.4005 30.3616L12.3205 30.339C12.1981 30.3044 12.0701 30.2943 11.9437 30.3092C11.8174 30.3241 11.6952 30.3637 11.5842 30.4258C11.035 30.733 10.5989 31.2082 10.34 31.7816L10.1067 32.2982Z" fill="#F6BB92"/>
<path d="M7.58354 18.9746C7.90601 18.9746 8.21527 19.1027 8.4433 19.3307L9.05592 19.9433L9.66847 19.3307C9.89651 19.1027 10.2058 18.9746 10.5282 18.9746C10.7994 18.9746 11.0628 19.0652 11.2766 19.2321C11.4903 19.399 11.6422 19.6326 11.7079 19.8957C11.7823 20.1931 11.7629 20.5063 11.6523 20.7923C11.5418 21.0783 11.3455 21.3231 11.0903 21.4932L9.05598 22.8495L7.0216 21.4932C6.76648 21.3231 6.57018 21.0783 6.45962 20.7923C6.34906 20.5063 6.32964 20.1931 6.40403 19.8957C6.46978 19.6326 6.62158 19.3991 6.8353 19.2322C7.04901 19.0653 7.31238 18.9746 7.58354 18.9746Z" fill="#DC4D41"/>
<path d="M17.5 13.2344H17.9844V16.1406H17.5V13.2344Z" fill="#EEB58E"/>
<path d="M24.7656 13.2344H25.25V16.1406H24.7656V13.2344Z" fill="#EEB58E"/>
<path d="M19.4976 21.5218L21.375 23.4062L23.2329 21.5362C23.1198 21.5174 23.017 21.459 22.9429 21.3715C22.8688 21.284 22.8281 21.1731 22.8281 21.0584V19.5312H19.9219V21.0412C19.9219 21.1592 19.8787 21.2732 19.8006 21.3617C19.7225 21.4502 19.6147 21.5072 19.4976 21.5218Z" fill="#F6BB92"/>
<path d="M21.375 20.0156C20.4758 20.0156 19.6133 19.6584 18.9775 19.0225C18.3416 18.3867 17.9844 17.5242 17.9844 16.625V16.1406H24.7656V16.625C24.7656 17.5242 24.4084 18.3867 23.7725 19.0225C23.1367 19.6584 22.2742 20.0156 21.375 20.0156Z" fill="#85BC94"/>
<path d="M15.5625 25.3438C15.83 25.3438 16.0469 25.1269 16.0469 24.8594C16.0469 24.5919 15.83 24.375 15.5625 24.375C15.295 24.375 15.0781 24.5919 15.0781 24.8594C15.0781 25.1269 15.295 25.3438 15.5625 25.3438Z" fill="#9E785D"/>
</svg>
