<svg width="40" height="40" viewBox="0 0 40 40" fill="none" xmlns="http://www.w3.org/2000/svg">
<circle opacity="0.3" cx="20" cy="20" r="20" fill="#009AA3"/>
<g clip-path="url(#clip0)">
<path d="M30.2232 21.393C33.866 21.393 36.8176 24.3446 36.8176 27.9875C36.8176 31.6303 33.866 34.5819 30.2232 34.5819C28.9067 34.5819 27.6142 34.2032 26.5202 33.4818C24.6987 32.2555 23.6287 30.1816 23.6287 27.9875C23.6287 26.701 24.0074 25.4747 24.6987 24.4047C25.889 22.5291 27.9929 21.393 30.2232 21.393Z" fill="#00ACEA"/>
<path d="M26.5141 33.4878L26.454 33.6441H16.7517V25.607L18.9819 23.503H22.0296C22.9434 23.503 23.8511 23.7855 24.5724 24.3506L24.6987 24.4107C24.0074 25.4807 23.6287 26.701 23.6287 27.9935C23.6287 30.1876 24.6927 32.2615 26.5141 33.4878ZM21.9936 28.3962C21.9635 27.5787 21.3323 26.9535 20.5148 26.9174C19.6972 26.9174 19.036 27.5787 19.036 28.3962C19.066 29.2138 19.6972 29.839 20.5148 29.875C20.8935 29.875 21.2662 29.7187 21.5487 29.4362C21.8373 29.1537 21.9936 28.7749 21.9936 28.3962Z" fill="#D4E1F4"/>
<path d="M24.4463 9.77301H15.7418C14.6117 9.71289 13.734 8.79917 13.734 7.66903C13.734 7.35644 13.7941 7.04385 13.9564 6.7553C14.0526 6.53288 14.2089 6.34653 14.3652 6.16018C14.774 5.78146 15.309 5.56505 15.8741 5.56505H20.2082C22.5346 5.535 24.4162 7.41655 24.4463 9.74295V9.77301Z" fill="#4B5D63"/>
<path d="M23.9112 13.8908C24.3801 14.3597 24.4161 15.1472 23.9413 15.6161C23.6888 15.8685 23.3461 15.9948 22.9975 15.9948H22.9374V13.5121H22.9975C23.3461 13.5121 23.6587 13.6684 23.9112 13.8908Z" fill="white"/>
<path d="M22.9374 13.5121V15.9948C22.9374 18.6037 21.3384 20.9241 18.9158 21.8378C18.2245 22.0903 17.4731 22.2165 16.7157 22.2165C16.0544 22.2165 15.3992 22.1203 14.768 21.9039C12.2252 21.0563 10.4939 18.6698 10.4939 16.0008V12.2978C10.4939 12.2978 13.4755 12.7667 15.7358 9.78503H22.9254L22.9374 13.5121Z" fill="#F7CAA5"/>
<path d="M21.5548 27.3623C21.8373 27.6448 21.9936 28.0235 21.9936 28.3962C21.9936 28.7749 21.8373 29.1476 21.5548 29.4302C21.2722 29.7127 20.8935 29.869 20.5208 29.869C19.7033 29.8389 19.0781 29.2077 19.042 28.3902C19.042 27.5727 19.7033 26.9114 20.5208 26.9114C20.8935 26.9234 21.2722 27.0797 21.5548 27.3623Z" fill="#00EFD1"/>
<path d="M18.9819 23.4369V23.497L16.7517 25.6009L14.7439 23.497V21.8979C15.3691 22.1204 16.0303 22.2105 16.6916 22.2105C17.443 22.2105 18.2004 22.0843 18.8917 21.8318L18.9518 21.9581L18.9819 23.4369Z" fill="#EDB288"/>
<path d="M11.9426 23.497H14.7379L16.7457 25.6009V33.6381H7.42206V27.735C7.42206 25.3785 9.30361 23.497 11.6601 23.497H11.6901H11.9426Z" fill="#D4E1F4"/>
<path d="M15.7418 9.77301C13.4815 12.7546 10.4999 12.2858 10.4999 12.2858V9.89925C10.4999 9.80307 10.5299 9.74296 10.5299 9.64678C10.6562 9.05165 11.3174 6.6952 13.9504 6.75531C13.7941 7.03784 13.728 7.35044 13.728 7.66904C13.734 8.79917 14.6116 9.7129 15.7418 9.77301Z" fill="#4B5D63"/>
<path d="M10.4999 13.5121V15.9948H10.3135C9.65226 16.0248 9.11725 15.4898 9.08719 14.8346C9.08719 14.8045 9.08719 14.8045 9.08719 14.7745C9.08719 14.4619 9.21343 14.1132 9.42984 13.8968C9.68231 13.6744 9.96485 13.5181 10.3075 13.5181L10.4999 13.5121Z" fill="#EDB288"/>
<path d="M22.9193 13.5121H23.1057C23.4483 13.5121 23.7309 13.6684 23.9834 13.8908C24.2058 14.1132 24.326 14.4559 24.326 14.7685C24.326 14.7985 24.326 14.7985 24.326 14.8286C24.2959 15.4898 23.7609 16.0248 23.0997 15.9888H22.9133V13.5121H22.9193Z" fill="#EDB288"/>
<path d="M14.0826 15.6161C13.6739 15.6161 13.2952 15.4598 12.9826 15.1772C12.7 14.8947 12.5437 14.4859 12.5437 14.0772V13.8247C12.5437 13.5722 12.7662 13.3558 13.0126 13.3558C13.2651 13.3558 13.4815 13.5782 13.4815 13.8247V14.0772C13.4815 14.2334 13.5416 14.3897 13.6679 14.516C13.9203 14.7384 14.293 14.7384 14.5155 14.4859C14.6116 14.3597 14.6718 14.2334 14.6718 14.0772V13.8247C14.6718 13.5722 14.8942 13.3558 15.1406 13.3558C15.3871 13.3558 15.6095 13.5782 15.6095 13.8247V14.0772C15.6215 14.9248 14.9302 15.6161 14.0826 15.6161Z" fill="#083863"/>
<path d="M19.3847 15.6161C18.9759 15.6161 18.5972 15.4598 18.2846 15.1772C18.0021 14.8947 17.8458 14.4859 17.8458 14.0772V13.8247C17.8458 13.5722 18.0682 13.3558 18.3146 13.3558C18.5671 13.3558 18.7835 13.5782 18.7835 13.8247V14.0772C18.7835 14.2334 18.8436 14.3897 18.9699 14.516C19.2224 14.7384 19.5951 14.7384 19.8175 14.4859C19.9137 14.3597 19.9738 14.2334 19.9738 14.0772V13.8247C19.9738 13.5722 20.1962 13.3558 20.4427 13.3558C20.6951 13.3558 20.9116 13.5782 20.9116 13.8247V14.0772C20.9236 14.9248 20.2383 15.6161 19.3847 15.6161Z" fill="#083863"/>
<path d="M31.762 32.7965C31.4795 32.7665 31.2571 32.6402 31.1369 32.4178L30.157 30.5964L29.2433 32.3577C29.1471 32.6102 28.9006 32.7665 28.6482 32.7665C28.3957 32.7665 28.1432 32.6402 27.9869 32.4238C26.9169 30.6986 26.2256 28.7809 25.9431 26.7731C25.8829 26.0518 26.1294 25.3605 26.6344 24.8555C27.1393 24.3205 27.8306 24.068 28.552 24.1342C28.8946 24.1642 29.1471 24.4768 29.4296 24.8255C29.7122 25.1681 30.3734 26.1119 31.4735 25.9857C31.6959 25.9255 31.9123 26.0818 31.9785 26.2982C31.9785 26.3283 31.9785 26.3584 31.9785 26.3944C32.0085 26.6469 31.8522 26.8633 31.5997 26.8994H31.5697C29.9707 27.1218 29.1531 26.0518 28.6782 25.3905L28.3957 25.0779C27.9869 25.0479 27.5781 25.2042 27.2956 25.5168C26.983 25.8294 26.8568 26.2381 26.8868 26.677C27.1093 28.4022 27.7044 30.0674 28.582 31.5762L29.4958 29.8149C29.622 29.5624 29.8384 29.4061 30.1209 29.4061C30.3734 29.4061 30.6259 29.5624 30.7461 29.7848L31.75 31.6063C32.6638 30.0974 33.2589 28.4323 33.4753 26.677C33.5053 26.2381 33.3791 25.8294 33.0665 25.5168C32.7539 25.2042 32.3451 25.0479 31.9063 25.0779C31.5637 25.0779 31.2451 25.1381 30.9325 25.2342C30.68 25.3304 30.4275 25.1741 30.3374 24.9216C30.2772 24.6692 30.4335 24.3866 30.68 24.3265L31.8402 24.1402C32.5616 24.0801 33.2529 24.3626 33.7578 24.8615C34.2267 25.3665 34.4792 26.0879 34.4191 26.7792C34.1365 28.787 33.4452 30.7346 32.3451 32.4659C32.2309 32.6703 32.0145 32.7965 31.762 32.7965Z" fill="#083863"/>
<path d="M30.2231 20.9241C27.9929 20.8279 25.919 21.928 24.5725 23.6893C23.821 23.1844 22.9374 22.9379 22.0297 22.9018H19.2945V22.1204C21.8072 21.1165 23.1598 18.9163 23.3161 16.4336C24.1036 16.2773 24.6686 15.586 24.6987 14.7685C24.6987 14.2996 24.5124 13.8547 24.1937 13.5421C23.9713 13.3197 23.6888 13.1634 23.3762 13.1033V10.3381H24.4462C24.7288 10.308 24.9151 10.0556 24.9151 9.77302C24.9151 7.16409 22.8111 5.03006 20.2022 5H15.838C15.1467 5.03006 14.4493 5.27652 14.0165 5.78749C13.9203 5.89569 13.6739 6.25637 13.6739 6.25637C11.5098 6.35256 10.3315 7.95759 10.1572 9.55661C10.061 10.4283 10.1572 13.0733 10.1572 13.0733C9.7785 13.0733 9.36372 13.2416 9.0872 13.5361C8.7686 13.8788 8.61831 14.2996 8.61831 14.7685C8.61831 15.586 9.21344 16.3074 10.031 16.4637C10.1572 18.0627 10.8485 19.6016 11.9787 20.7377C12.6038 21.399 13.3913 21.8979 14.269 22.2165V22.9018H11.6901C9.08119 22.9018 7.04333 25.132 7.04333 27.741V33.6441C7.04333 33.9267 7.16957 34.2092 7.42205 34.2092H26.454L26.6404 34.113C27.7104 34.7743 29.111 35.0328 30.3674 34.9967C34.2928 34.7442 37.2204 31.438 36.9378 27.5125C36.7214 23.9658 33.7759 21.0744 30.2231 20.9241ZM10.1873 15.4598C9.87469 15.3636 9.65227 15.0811 9.62221 14.7685C9.62221 14.546 9.64024 14.3296 9.79654 14.1733C9.85665 14.1132 9.96486 14.0711 10.1873 14.0471V15.4598ZM23.5626 14.2034C23.7189 14.3597 23.785 14.546 23.785 14.7685C23.815 15.051 23.6287 15.3335 23.3762 15.4297V14.1132C23.4243 14.1132 23.5145 14.1553 23.5626 14.2034ZM14.3652 6.94768C14.4614 6.76133 14.5515 6.60503 14.7078 6.47879C14.9904 6.1662 15.3991 5.97384 15.838 5.94378H20.2022C22.1198 5.94378 23.7189 7.51275 23.9413 9.40032L15.8079 9.3402H15.7478C14.8701 9.28009 14.2089 8.55271 14.2089 7.67506C14.2029 7.42258 14.269 7.1701 14.3652 6.94768ZM13.3252 7.26027C13.3252 7.41657 13.2952 7.54281 13.2952 7.66904C13.3252 8.73907 13.9865 9.67684 14.9603 10.0556C13.9865 11.1556 12.5437 11.8109 11.0649 11.8409C11.0649 11.8409 11.0649 10.266 11.0649 9.73695C11.1912 9.20795 11.63 7.57887 13.3252 7.26027ZM12.7301 20.0765C11.6961 18.9764 11.095 17.5036 11.1311 15.9948V12.8208C12.165 12.8208 14.2089 12.5082 15.9702 10.3381H22.4384V15.9888C22.4384 18.3753 20.9596 20.5454 18.7354 21.393C17.5091 21.8318 16.1626 21.8619 14.9062 21.4531C14.0826 21.1766 13.3252 20.7017 12.7301 20.0765ZM16.1505 33.2654H7.98712V27.735C7.95706 25.7572 9.46591 24.1221 11.4437 23.9658V25.2823C11.0048 25.4086 10.596 25.625 10.2474 25.9436C9.80856 26.3884 9.55608 26.9836 9.55608 27.6147V30.2838C9.58614 30.5363 9.80856 30.7527 10.061 30.7527H10.8125C11.0649 30.7527 11.2813 30.5303 11.2813 30.2838C11.2813 30.0373 11.0589 29.8149 10.8125 29.8149H10.4999V27.6147C10.4999 27.236 10.6562 26.8633 10.9387 26.6108C11.1912 26.3283 11.5338 26.172 11.9125 26.172C12.7 26.2021 13.3252 26.8333 13.3252 27.6147V29.8149H12.9164C12.664 29.8149 12.4475 30.0373 12.4475 30.2838C12.4475 30.5303 12.67 30.7527 12.9164 30.7527H13.8903C14.1428 30.7527 14.269 30.5303 14.269 30.2838V27.6147C14.269 26.4545 13.6438 25.5108 12.3874 25.2883V23.8456H14.5515L16.1505 25.7933V33.2654ZM16.6856 24.9457L15.2068 23.2806V22.5291C15.6757 22.6253 16.1806 22.6854 16.6495 22.6854C17.2146 22.7155 17.8097 22.6253 18.3447 22.463V23.2806L16.6856 24.9457ZM17.0943 33.2654V25.8234L19.1683 23.8456H19.9197V26.5147C19.2945 26.7371 18.507 27.4885 18.507 28.3962C18.507 28.9012 18.7595 29.4001 19.1322 29.7488C19.4748 30.1275 19.9798 30.3138 20.5148 30.3138C21.5848 30.3439 22.4324 29.4963 22.4625 28.4323V28.4022C22.4324 27.8672 22.21 27.3983 21.8373 27.0196C21.5548 26.7671 21.2422 26.5808 20.8635 26.5147V23.8456H22.0236C22.745 23.8757 23.4363 24.068 24.0314 24.4708C23.4363 25.5709 23.1177 26.7611 23.1177 28.0175C23.1177 29.9952 23.9353 31.9129 25.408 33.2594H17.0943V33.2654ZM20.5208 27.3923C21.0558 27.3623 21.4946 27.8011 21.5247 28.3361C21.5247 28.3662 21.5247 28.3662 21.5247 28.3962C21.5247 28.6487 21.4285 28.9012 21.2422 29.0875C20.8334 29.4662 20.2383 29.4662 19.8295 29.0875C19.4207 28.7449 19.3907 28.1137 19.7694 27.7049C19.9557 27.4885 20.2383 27.3923 20.5208 27.3923ZM30.0368 33.9267C28.8405 33.9267 27.6803 33.584 26.6764 32.9228C25.0414 31.8227 24.0675 29.9712 24.0675 27.9935C24.0675 26.8333 24.4102 25.7332 25.0414 24.7593C26.8327 21.9941 30.5057 21.2126 33.2709 22.998C36.0361 24.7894 36.8176 28.4623 35.0322 31.2276C33.9261 32.9228 32.0446 33.9267 30.0368 33.9267Z" fill="#083863"/>
</g>
<defs>
<clipPath id="clip0">
<rect width="30" height="30" fill="white" transform="translate(7 5)"/>
</clipPath>
</defs>
</svg>
