<svg width="40" height="40" viewBox="0 0 40 40" fill="none" xmlns="http://www.w3.org/2000/svg">
<circle opacity="0.3" cx="20" cy="20" r="20" fill="#009AA3"/>
<path d="M27.8798 27.7073L24.6592 26.2396L22.9536 25.5977H18.7868L18.8337 25.624L12.2775 28.6437V32.0804H28.9159C29.0793 32.0804 29.2118 31.9647 29.2118 31.8219V29.6263C29.2118 28.8199 28.6985 28.0803 27.8798 27.7073Z" fill="#DFF6FD"/>
<path d="M29.512 15.3961V11.5984C29.512 7.86375 26.0453 4.83624 21.7689 4.83624H17.4696C15.47 4.83624 13.7631 5.92675 13.083 7.4635C11.8423 7.4635 10.8365 8.34184 10.8365 9.42535V15.5828V17.1827H29.2118L29.512 15.3961Z" fill="#9B8E99"/>
<path d="M11.9691 16.7859V10.6285C11.9691 9.60974 12.8582 8.77239 13.9957 8.67587C14.1318 8.6643 14.249 8.58877 14.3045 8.47968C15.0363 7.04221 16.6847 6.03936 18.6022 6.03936H22.9015C24.991 6.03936 26.8869 6.76245 28.2798 7.9373C26.9015 6.07158 24.5005 4.83624 21.7689 4.83624H17.4696C15.47 4.83624 13.7631 5.92675 13.083 7.4635C11.8423 7.4635 10.8365 8.34184 10.8365 9.42535V15.5828V17.1827H11.9692V16.7859H11.9691Z" fill="#8B8089"/>
<path d="M22.3816 24.4823L21.5141 27.2815L20.2058 32.0801H20.1427L18.8343 27.2815L17.9732 24.501L19.1731 24.0206H21.3067L22.3816 24.4823Z" fill="#AA9EA9"/>
<path d="M12.7675 30.0354C12.7675 29.2289 13.2808 28.4894 14.0994 28.1163L17.3201 26.6487L19.0257 26.0068H24.0406L22.9535 25.5977H17.395L15.6894 26.2396L12.4688 27.7073C11.6501 28.0803 11.1368 28.8199 11.1368 29.6263V31.8219C11.1368 31.9647 11.2693 32.0804 11.4327 32.0804H12.7675V30.0354Z" fill="#C8EFFE"/>
<path d="M22.2518 25.0704V25.8952C22.2518 26.8972 21.3217 27.7094 20.1743 27.7094C19.027 27.7094 18.0969 26.8972 18.0969 25.8952V25.0704V22.7863H22.2518V25.0704Z" fill="#FFE5C2"/>
<path d="M19.7321 26.0282V25.2034V22.9193H22.2518V22.7863H18.0969V25.0704V25.8952C18.0969 26.8972 19.027 27.7094 20.1743 27.7094C20.3979 27.7094 20.613 27.6783 20.8148 27.6212C20.1697 27.3133 19.7321 26.7154 19.7321 26.0282Z" fill="#FED2A4"/>
<path d="M18.8343 27.2815L20.1427 32.0801L15.7501 28.3591C15.646 28.271 15.6182 28.1338 15.6819 28.0198L16.3431 26.8391L15.535 26.0976C15.3861 25.9615 15.4208 25.7395 15.6062 25.6431L17.2553 24.7881L18.0201 24.4823L18.8343 27.2815Z" fill="#C8EFFE"/>
<path d="M16.8478 28.3415C16.7438 28.2533 16.716 28.1161 16.7797 28.0021L17.3459 26.991C17.403 26.8891 17.3814 26.7669 17.2918 26.6847L16.6327 26.0799C16.4838 25.9438 16.5185 25.7218 16.704 25.6254L18.1366 24.8827L18.0201 24.4823L17.2553 24.7881L15.6063 25.6431C15.4208 25.7395 15.3861 25.9615 15.535 26.0976L16.3431 26.8391L15.682 28.0198C15.6183 28.1338 15.646 28.271 15.7501 28.3591L20.1427 32.0801L19.8067 30.8479L16.8478 28.3415Z" fill="#99E6FC"/>
<path d="M24.7423 25.6431C24.9278 25.7395 24.9625 25.9615 24.8136 26.0976L24.0055 26.8392L24.6666 28.0198C24.7303 28.1338 24.7025 28.271 24.5985 28.3592L20.2058 32.0801L21.5142 27.2816L22.3447 24.4469L23.0932 24.7881L24.7423 25.6431Z" fill="#C8EFFE"/>
<path d="M28.4614 18.3164H26.205V15.2677H28.4614C29.4255 15.2677 30.207 15.9502 30.207 16.792C30.207 17.6339 29.4255 18.3164 28.4614 18.3164Z" fill="#FED2A4"/>
<path d="M27.1534 12.8478H22.8056C22.6914 12.8478 22.5803 12.8186 22.4851 12.7635L20.4127 11.5603C20.32 11.5063 20.1957 11.5647 20.1957 11.6617V12.2003C20.1957 12.3634 20.0101 12.4757 19.8344 12.4202C19.1821 12.2142 18.558 11.9354 17.9795 11.589L14.8069 9.68866L13.7135 14.0691L13.8015 19.769L15.1707 22.6188L19.2181 24.7561L20.8569 24.9335L20.8316 25.0436C24.6046 24.7439 27.5812 21.899 27.5812 18.5251V15.078L27.5938 14.3001V13.2324C27.5937 13.02 27.3965 12.8478 27.1534 12.8478Z" fill="#FFE5C2"/>
<path d="M11.8986 18.3164H13.7134V15.2677H11.8986C10.9346 15.2677 10.1532 15.9502 10.1532 16.792C10.1531 17.6339 10.9346 18.3164 11.8986 18.3164Z" fill="#FED2A4"/>
<path d="M17.1379 23.1755C15.7973 22.0053 14.9684 20.3878 14.9684 18.6017V12.6892C14.9684 11.7852 15.1814 10.9245 15.5649 10.1427L14.2322 9.34451C14.0789 9.25305 13.8669 9.29217 13.7729 9.4321C13.1339 10.3891 12.7673 11.5019 12.7673 12.6892V18.6017C12.7673 20.3878 13.5963 22.0053 14.9368 23.1755C16.2651 24.336 18.0968 25.0575 20.1209 25.0699C20.5103 25.0723 20.8929 25.0475 21.2665 24.9977C19.665 24.7878 18.231 24.1305 17.1379 23.1755Z" fill="#FED2A4"/>
<path d="M16.5398 32.0804V31.3933C16.5398 31.233 16.3911 31.1031 16.2075 31.1031H14.1337C13.9502 31.1031 13.8014 31.233 13.8014 31.3933V32.0804H16.5398Z" fill="#C8EFFE"/>
<path d="M26.6102 32.0804V31.3933C26.6102 31.233 26.4615 31.1031 26.2779 31.1031H24.204C24.0205 31.1031 23.8717 31.233 23.8717 31.3933V32.0804H26.6102Z" fill="#C8EFFE"/>
<path d="M28.0526 18.7296H28.4614C29.6848 18.7296 30.6801 17.8605 30.6801 16.792C30.6801 16.2387 30.4126 15.7392 29.9852 15.3858V11.5983C29.9852 7.6419 26.2994 4.42307 21.7689 4.42307H17.4696C16.4042 4.42307 15.381 4.70382 14.5106 5.23485C13.7451 5.70187 13.1449 6.33141 12.761 7.06684C11.4126 7.20634 10.3634 8.21084 10.3634 9.42535V15.3954C9.94268 15.7482 9.68005 16.2437 9.68005 16.7921C9.68005 17.8605 10.6753 18.7296 11.8987 18.7296H12.2959C12.3503 21.3181 14.049 23.5616 16.5165 24.6958L15.3649 25.288C15.1519 25.3985 15.0104 25.5849 14.9766 25.7991C14.9611 25.8975 14.9703 25.9952 15.0002 26.0876L12.2499 27.3409C11.2715 27.7869 10.6637 28.6625 10.6637 29.6263V32.0803C10.6637 32.3086 10.8755 32.4935 11.1368 32.4935C11.3982 32.4935 11.61 32.3086 11.61 32.0803V29.6263C11.61 28.9715 12.0229 28.3765 12.6876 28.0736L15.5925 26.7498L15.7735 26.9158L15.2572 27.8383C15.1031 28.1138 15.1688 28.4423 15.4208 28.6558L16.2771 29.3812C16.369 29.4591 16.4878 29.4979 16.6065 29.4979C16.73 29.4979 16.8533 29.4559 16.9461 29.3724C17.1281 29.2086 17.1236 28.947 16.9361 28.7882L16.1511 28.1232L16.7682 27.0205C16.8551 26.8653 16.8222 26.6793 16.6858 26.5542L16.0262 25.9494C16.0256 25.9488 16.025 25.9482 16.0244 25.9476L15.9965 25.9221L17.5098 25.144C17.5351 25.131 17.5582 25.1161 17.5796 25.0999C17.5943 25.1044 17.6089 25.109 17.6236 25.1134V25.8952C17.6236 26.5329 17.9325 27.1084 18.4261 27.5149L19.3118 30.8007L18.3858 30.0164C18.1982 29.8575 17.8987 29.8615 17.7168 30.0253C17.5349 30.1891 17.5394 30.4507 17.727 30.6096L19.8133 32.3769C19.9039 32.4537 20.0228 32.4935 20.1429 32.4935C20.1533 32.4935 20.1638 32.4924 20.1743 32.4918C20.1848 32.4924 20.1952 32.4935 20.2057 32.4935C20.3257 32.4935 20.4447 32.4536 20.5353 32.3769L24.9278 28.6558C25.1798 28.4423 25.2456 28.1138 25.0914 27.8383L24.5751 26.9158L24.7561 26.7498L27.661 28.0736C28.3257 28.3765 28.7387 28.9715 28.7387 29.6263V32.0803C28.7387 32.3086 28.9504 32.4935 29.2118 32.4935C29.4732 32.4935 29.6849 32.3086 29.6849 32.0803V29.6263C29.6849 28.6625 29.0771 27.7868 28.0987 27.3409L25.3485 26.0876C25.3784 25.9952 25.3876 25.8973 25.3721 25.799C25.3382 25.5846 25.1967 25.3984 24.9837 25.2879L23.8375 24.6934C26.3021 23.5584 27.9984 21.3162 28.0526 18.7296ZM28.4614 17.9032H28.066V15.6809H28.4614C29.163 15.6809 29.7338 16.1794 29.7338 16.7921C29.7338 17.4048 29.163 17.9032 28.4614 17.9032ZM10.6263 16.792C10.6263 16.1794 11.1971 15.6809 11.8986 15.6809H12.2941V17.9032H11.8986C11.1971 17.9032 10.6263 17.4047 10.6263 16.792ZM20.1743 25.4836C20.7239 25.4836 21.2605 25.434 21.7787 25.3401V25.8952C21.7787 26.6677 21.059 27.2963 20.1743 27.2963C19.8122 27.2963 19.4778 27.1908 19.209 27.0134C19.1744 26.9782 19.1336 26.9486 19.0883 26.9253C18.7698 26.6691 18.5699 26.3022 18.5699 25.8952V25.3401C19.0881 25.434 19.6246 25.4836 20.1743 25.4836ZM20.1743 28.1226C20.3965 28.1226 20.6122 28.0975 20.8179 28.0507L20.1767 30.403L19.5434 28.0536C19.7452 28.0986 19.9566 28.1226 20.1743 28.1226ZM22.8518 25.1432L24.3525 25.9217L24.3238 25.948C24.3236 25.9481 24.3235 25.9483 24.3234 25.9484L23.6628 26.5542C23.5264 26.6793 23.4935 26.8653 23.5804 27.0206L24.1975 28.1232L21.0422 30.7962L21.9407 27.4998C22.4235 27.0943 22.7249 26.5252 22.7249 25.8953V25.1135C22.743 25.1081 22.7611 25.1024 22.7792 25.0968C22.8013 25.1138 22.8254 25.1296 22.8518 25.1432ZM20.1743 24.6572C16.3509 24.6572 13.2403 21.9407 13.2403 18.6018V18.3163V15.2677V14.1126C13.2403 13.8843 13.0286 13.6994 12.7672 13.6994C12.5058 13.6994 12.2941 13.8843 12.2941 14.1126V14.8545H11.8986C11.6947 14.8545 11.4973 14.8791 11.3096 14.9244V9.42535C11.3096 8.66172 11.9459 8.02584 12.7797 7.89979L13.3968 9.18129C13.3857 9.19523 13.3746 9.20917 13.3648 9.22388C12.7363 10.1638 12.3701 11.238 12.3057 12.3305C12.2922 12.5584 12.4929 12.7527 12.7538 12.7644C13.0161 12.7754 13.2372 12.6008 13.2507 12.373C13.3045 11.4604 13.5975 10.5625 14.1 9.76671L17.7121 11.9299C18.4327 12.3614 19.2213 12.6948 20.0559 12.9207C20.1998 12.9596 20.3557 12.9365 20.4767 12.8586C20.5978 12.7808 20.6692 12.6573 20.6692 12.526V12.2054L22.2232 13.1075C22.3962 13.208 22.5976 13.2612 22.8055 13.2612H24.0964C24.3578 13.2612 24.5696 13.0762 24.5696 12.848C24.5696 12.6197 24.3578 12.4348 24.0964 12.4348H22.8055C22.7847 12.4348 22.7645 12.4294 22.747 12.4194L20.6745 11.2163C20.4862 11.1069 20.2453 11.097 20.046 11.1902C19.8467 11.2835 19.7228 11.4642 19.7228 11.6617V11.9404C19.2043 11.7573 18.71 11.5255 18.2471 11.2483L14.4996 9.00401C14.4366 8.96627 14.3678 8.93762 14.2962 8.91723L13.5957 7.46224C14.2641 6.13231 15.7975 5.24945 17.4696 5.24945H21.7688C25.7775 5.24945 29.0388 8.09751 29.0388 11.5983V14.9215C28.8546 14.8781 28.6611 14.8545 28.4613 14.8545H28.058L28.0669 14.3059C28.0669 14.304 28.0669 14.302 28.0669 14.3001V13.2325C28.0669 12.7926 27.6572 12.4348 27.1535 12.4348H26.1127C25.8513 12.4348 25.6395 12.6197 25.6395 12.848C25.6395 13.0762 25.8513 13.2612 26.1127 13.2612H27.1207V14.2973L27.1083 15.0721C27.1082 15.074 27.1082 15.0759 27.1082 15.0778V18.6018C27.1082 21.9408 23.9976 24.6572 20.1743 24.6572Z" fill="black"/>
<path d="M16.6609 15.6363C16.3996 15.6363 16.1878 15.8213 16.1878 16.0495V16.3884C16.1878 16.6166 16.3996 16.8016 16.6609 16.8016C16.9223 16.8016 17.1341 16.6166 17.1341 16.3884V16.0495C17.1341 15.8213 16.9223 15.6363 16.6609 15.6363Z" fill="black"/>
<path d="M23.6951 15.6363C23.4337 15.6363 23.2219 15.8213 23.2219 16.0495V16.3884C23.2219 16.6166 23.4337 16.8016 23.6951 16.8016C23.9564 16.8016 24.1682 16.6166 24.1682 16.3884V16.0495C24.1682 15.8213 23.9564 15.6363 23.6951 15.6363Z" fill="black"/>
<path d="M17.0475 14.1848C16.4074 14.0305 15.7582 14.0307 15.1182 14.1848C14.8663 14.2455 14.7184 14.473 14.7879 14.693C14.8574 14.913 15.1176 15.0422 15.3698 14.9815C15.8495 14.8658 16.3161 14.8658 16.7959 14.9815C16.838 14.9917 16.8803 14.9964 16.922 14.9964C17.1296 14.9964 17.32 14.8762 17.3779 14.693C17.4473 14.473 17.2994 14.2455 17.0475 14.1848Z" fill="black"/>
<path d="M25.2303 14.1848C24.5902 14.0307 23.9411 14.0305 23.301 14.1848C23.0491 14.2455 22.9012 14.473 22.9707 14.693C23.0402 14.913 23.3005 15.0422 23.5526 14.9815C24.0325 14.8658 24.4991 14.8658 24.9787 14.9815C25.0208 14.9917 25.0631 14.9964 25.1048 14.9964C25.3124 14.9964 25.5028 14.8762 25.5607 14.693C25.6301 14.473 25.4822 14.2455 25.2303 14.1848Z" fill="black"/>
<path d="M16.2075 30.6899H14.1337C13.6896 30.6899 13.3282 31.0055 13.3282 31.3933V32.0804C13.3282 32.3086 13.54 32.4936 13.8014 32.4936C14.0627 32.4936 14.2745 32.3086 14.2745 32.0804V31.5163H16.0666V32.0804C16.0666 32.3086 16.2784 32.4936 16.5398 32.4936C16.8011 32.4936 17.0129 32.3086 17.0129 32.0804V31.3933C17.0129 31.0055 16.6516 30.6899 16.2075 30.6899Z" fill="black"/>
<path d="M26.2778 30.6899H24.204C23.7599 30.6899 23.3986 31.0055 23.3986 31.3933V32.0804C23.3986 32.3086 23.6103 32.4936 23.8717 32.4936C24.1331 32.4936 24.3448 32.3086 24.3448 32.0804V31.5163H26.137V32.0804C26.137 32.3086 26.3488 32.4936 26.6102 32.4936C26.8715 32.4936 27.0833 32.3086 27.0833 32.0804V31.3933C27.0834 31.0055 26.722 30.6899 26.2778 30.6899Z" fill="black"/>
<path d="M19.1401 19.2947C19.3649 19.4108 19.6552 19.3461 19.7883 19.1496L19.8004 19.1317C19.8953 18.9913 20.05 18.976 20.1125 18.9787C20.1747 18.9795 20.3293 18.9966 20.4197 19.1393C20.5061 19.2755 20.6676 19.3523 20.834 19.3523C20.9116 19.3523 20.9902 19.3356 21.0628 19.3006C21.2914 19.19 21.3741 18.9386 21.2475 18.7389C21.0182 18.3774 20.5989 18.1581 20.1257 18.1524C20.1193 18.1523 20.113 18.1523 20.1066 18.1523C19.6411 18.1523 19.2231 18.3604 18.9858 18.7111L18.974 18.7286C18.841 18.9249 18.9153 19.1784 19.1401 19.2947Z" fill="black"/>
<path d="M21.5521 21.2473C21.3085 21.1647 21.0344 21.27 20.9396 21.4826C20.8106 21.7726 20.4977 21.9599 20.1427 21.9599C19.7876 21.9599 19.4748 21.7726 19.3457 21.4826C19.251 21.27 18.9769 21.1648 18.7332 21.2473C18.4897 21.3301 18.3691 21.5696 18.4638 21.7822C18.7354 22.3922 19.3944 22.7863 20.1427 22.7863C20.8909 22.7863 21.55 22.3922 21.8216 21.7822C21.9163 21.5695 21.7957 21.3301 21.5521 21.2473Z" fill="black"/>
</svg>
